<svg xmlns="http://www.w3.org/2000/svg" viewBox="0 0 24 24" width="64" height="64" fill="none">
  <rect width="24" height="24" rx="4" fill="#f5f5f0"/>
  <path d="M4 6c1.5-.8 3.5-1 6 0 2.5-1 4.5-.8 6 0v11c-1.5-.8-3.5-1-6 0-2.5-1-4.5-.8-6 0V6z" fill="#1a1a1a" opacity="0.08"/>
  <path d="M5 6.5c1.5-.8 3.5-1 6 0 2.5-1 4.5-.8 6 0v9.5c-1.5-.8-3.5-1-6 0-2.5-1-4.5-.8-6 0V6.5z" stroke="#8b6f47" stroke-width="1.2" stroke-linecap="round" stroke-linejoin="round" fill="#fff"/>
  <path d="M7 8.5c1.2-.6 2.6-.8 4 0 1.3-.8 2.7-.6 4 0" stroke="#5d5d5d" stroke-width="1" stroke-linecap="round" fill="none" opacity="0.9"/>
</svg>
